<?xml version="1.0" encoding="UTF-8" standalone="no"?>
<!-- Generator: Adobe Illustrator 13.0.0, SVG Export Plug-In . SVG Version: 6.00 Build 14948)  -->

<svg
   xmlns:dc="http://purl.org/dc/elements/1.1/"
   xmlns:cc="http://creativecommons.org/ns#"
   xmlns:rdf="http://www.w3.org/1999/02/22-rdf-syntax-ns#"
   xmlns:svg="http://www.w3.org/2000/svg"
   xmlns="http://www.w3.org/2000/svg"
   xmlns:sodipodi="http://sodipodi.sourceforge.net/DTD/sodipodi-0.dtd"
   xmlns:inkscape="http://www.inkscape.org/namespaces/inkscape"
   version="1.1"
   id="Layer_1"
   x="0px"
   y="0px"
   width="60"
   height="60"
   viewBox="0 0 60 60"
   enable-background="new 0 0 400 400"
   xml:space="preserve"
   sodipodi:version="0.32"
   inkscape:version="0.91 r13725"
   sodipodi:docname="mlogo.svg"
   inkscape:output_extension="org.inkscape.output.svg.inkscape"><metadata
     id="metadata8"><rdf:RDF><cc:Work
         rdf:about=""><dc:format>image/svg+xml</dc:format><dc:type
           rdf:resource="http://purl.org/dc/dcmitype/StillImage" /><dc:title></dc:title></cc:Work></rdf:RDF></metadata><defs
     id="defs6"><inkscape:perspective
       sodipodi:type="inkscape:persp3d"
       inkscape:vp_x="0 : 200 : 1"
       inkscape:vp_y="0 : 1000 : 0"
       inkscape:vp_z="400 : 200 : 1"
       inkscape:persp3d-origin="200 : 133.33333 : 1"
       id="perspective10" /><filter
       inkscape:collect="always"
       style="color-interpolation-filters:sRGB"
       id="filter4229"
       x="-0.083297673"
       width="1.1665953"
       y="-0.084714272"
       height="1.1694285"><feGaussianBlur
         inkscape:collect="always"
         stdDeviation="1.7777646"
         id="feGaussianBlur4231" /></filter></defs><sodipodi:namedview
     inkscape:window-height="961"
     inkscape:window-width="1280"
     inkscape:pageshadow="2"
     inkscape:pageopacity="0.0"
     guidetolerance="10.0"
     gridtolerance="10.0"
     objecttolerance="10.0"
     borderopacity="1.0"
     bordercolor="#666666"
     pagecolor="#ffffff"
     id="base"
     showgrid="false"
     inkscape:zoom="1.165"
     inkscape:cx="-79.58012"
     inkscape:cy="155.70546"
     inkscape:window-x="-8"
     inkscape:window-y="-8"
     inkscape:current-layer="Layer_1"
     inkscape:window-maximized="1"
     inkscape:showpageshadow="false" /><path
     d="m 53.936944,52.399283 0,-41.850315 c 0,-2.3972718 -1.410414,-4.9160228 -5.660035,-4.9160228 -3.212241,0 -4.504177,1.319528 -5.918218,3.960015 l -13.902648,26.9807548 -0.126768,0 L 14.299613,9.5929592 c -1.416111,-2.640486 -2.701315,-3.960014 -5.9215796,-3.960014 -4.246256,0 -5.662624,2.518751 -5.662624,4.9160228 l 0,41.850315 c 0,2.284942 1.932986,3.598672 4.246515,3.598672 2.05768,0 4.3748306,-1.31373 4.3748306,-3.598672 l 0,-31.176995 0.130641,0 12.740579,24.223603 c 0.901044,1.679409 2.061817,2.642656 4.121305,2.642656 2.055869,0 3.216641,-0.963247 4.119238,-2.642656 l 12.73851,-24.223603 0.130908,0 0,31.176995 c 0,2.284942 2.313269,3.598672 4.373017,3.598672 2.320773,0 4.245997,-1.31373 4.245997,-3.598672 z"
     id="path3-7"
     style="fill:#a4a4a7;fill-opacity:1;stroke:none;stroke-width:13.05552959;stroke-linecap:round;stroke-linejoin:round;stroke-miterlimit:4;stroke-dasharray:none;stroke-opacity:1;filter:url(#filter4229)"
     inkscape:connector-curvature="0"
     transform="matrix(1.0165026,0,0,1.0165026,1.6920442,-0.6406602)"
     inkscape:export-xdpi="90"
     inkscape:export-ydpi="90" /><path
     d="m 57.984378,50.935272 0,-42.5409553 c 0,-2.4368327 -1.43369,-4.9971492 -5.75344,-4.9971492 -3.265251,0 -4.578508,1.3413027 -6.015884,4.0253651 L 32.082977,34.84854 l -0.12886,0 L 17.692928,7.4225312 c -1.43948,-2.684061 -2.745893,-4.0253637 -6.019301,-4.0253637 -4.3163302,0 -5.7560718,2.5603165 -5.7560718,4.9971492 l 0,42.5409553 c 0,2.322649 1.9648849,3.658059 4.3165928,3.658059 2.091638,0 4.447028,-1.33541 4.447028,-3.658059 l 0,-31.691496 0.132796,0 12.950833,24.623355 c 0.915912,1.707123 2.095842,2.686266 4.189317,2.686266 2.089795,0 3.269723,-0.979143 4.187215,-2.686266 l 12.948729,-24.623355 0.133069,0 0,31.691496 c 0,2.322649 2.351443,3.658059 4.445183,3.658059 2.359072,0 4.316066,-1.33541 4.316066,-3.658059 z"
     id="path3"
     style="fill:#375e97;fill-opacity:1;stroke:none;stroke-width:13.05552959;stroke-linecap:round;stroke-linejoin:round;stroke-miterlimit:4;stroke-dasharray:none;stroke-opacity:1"
     inkscape:connector-curvature="0"
     inkscape:export-xdpi="90"
     inkscape:export-ydpi="90" /></svg>